<?xml version="1.0" standalone="no"?><svg xmlns="http://www.w3.org/2000/svg" viewBox="0 0 1440 320"><path fill="#f3f3f3" fill-opacity="1" d="M0,128L18.5,122.7C36.9,117,74,107,111,133.3C147.7,160,185,224,222,234.7C258.5,245,295,203,332,165.3C369.2,128,406,96,443,117.3C480,139,517,213,554,229.3C590.8,245,628,203,665,160C701.5,117,738,75,775,48C812.3,21,849,11,886,48C923.1,85,960,171,997,192C1033.8,213,1071,171,1108,170.7C1144.6,171,1182,213,1218,234.7C1255.4,256,1292,256,1329,240C1366.2,224,1403,192,1422,176L1440,160L1440,320L1421.5,320C1403.1,320,1366,320,1329,320C1292.3,320,1255,320,1218,320C1181.5,320,1145,320,1108,320C1070.8,320,1034,320,997,320C960,320,923,320,886,320C849.2,320,812,320,775,320C738.5,320,702,320,665,320C627.7,320,591,320,554,320C516.9,320,480,320,443,320C406.2,320,369,320,332,320C295.4,320,258,320,222,320C184.6,320,148,320,111,320C73.8,320,37,320,18,320L0,320Z"></path></svg>