<?xml version="1.0" standalone="no"?><svg xmlns="http://www.w3.org/2000/svg" viewBox="0 0 1440 320"><path fill="#ffffff" fill-opacity="1" d="M0,288L26.7,277.3C53.3,267,107,245,160,213.3C213.3,181,267,139,320,128C373.3,117,427,139,480,170.7C533.3,203,587,245,640,250.7C693.3,256,747,224,800,202.7C853.3,181,907,171,960,144C1013.3,117,1067,75,1120,69.3C1173.3,64,1227,96,1280,96C1333.3,96,1387,64,1413,48L1440,32L1440,320L1413.3,320C1386.7,320,1333,320,1280,320C1226.7,320,1173,320,1120,320C1066.7,320,1013,320,960,320C906.7,320,853,320,800,320C746.7,320,693,320,640,320C586.7,320,533,320,480,320C426.7,320,373,320,320,320C266.7,320,213,320,160,320C106.7,320,53,320,27,320L0,320Z"></path></svg>