<?xml version="1.0" standalone="no"?><svg xmlns="http://www.w3.org/2000/svg" viewBox="0 0 1440 320"><path fill="#333333" fill-opacity="1" d="M0,192L40,213.3C80,235,160,277,240,261.3C320,245,400,171,480,160C560,149,640,203,720,213.3C800,224,880,192,960,170.7C1040,149,1120,139,1200,149.3C1280,160,1360,192,1400,208L1440,224L1440,320L1400,320C1360,320,1280,320,1200,320C1120,320,1040,320,960,320C880,320,800,320,720,320C640,320,560,320,480,320C400,320,320,320,240,320C160,320,80,320,40,320L0,320Z"></path></svg>